<svg width="48" height="48" viewBox="0 0 48 48" fill="none" xmlns="http://www.w3.org/2000/svg">
<path d="M0 12C0 5.37258 5.37258 0 12 0H36C42.6274 0 48 5.37258 48 12V36C48 42.6274 42.6274 48 36 48H12C5.37258 48 0 42.6274 0 36V12Z" fill="white"/>
<path d="M27.3849 18.9171C28.4652 17.0306 27.8241 14.6183 25.953 13.5291C24.0819 12.4399 21.6893 13.0863 20.6091 14.9728L12.5306 29.0806C11.4503 30.9671 12.0914 33.3794 13.9625 34.4686C15.8336 35.5578 18.2262 34.9114 19.3065 33.0249L27.3849 18.9171Z" fill="#F8BB2D"/>
<path d="M19.8263 31.0546C19.8263 33.2336 18.0743 35 15.9131 35C13.752 35 12 33.2336 12 31.0546C12 28.8756 13.752 27.1091 15.9131 27.1091C18.0743 27.1091 19.8263 28.8756 19.8263 31.0546Z" fill="#3BA757"/>
<path d="M20.6214 18.9171C19.5412 17.0306 20.1823 14.6183 22.0533 13.5291C23.9244 12.4399 26.317 13.0863 27.3973 14.9728L35.4757 29.0806C36.556 30.9671 35.9149 33.3794 34.0438 34.4686C32.1727 35.5578 29.7802 34.9114 28.6999 33.0249L20.6214 18.9171Z" fill="#4689F2"/>
<path d="M0 0H13V2C13 7.52285 8.52285 12 3 12H0V0Z" fill="#9058FF"/>
</svg>
