<svg width="48" height="48" viewBox="0 0 48 48" fill="none" xmlns="http://www.w3.org/2000/svg">
<path d="M22.1143 10.0588C22.7586 10.0588 23.2809 10.5812 23.2809 11.2255V13.7457H28.7507C30.6167 13.7457 32.1294 15.2584 32.1294 17.1244V21.8452C32.1294 22.4896 31.607 23.0119 30.9627 23.0119C30.3184 23.0119 29.796 22.4896 29.796 21.8452V17.1244C29.796 16.5471 29.328 16.079 28.7507 16.079H15.4783C14.901 16.079 14.4329 16.5471 14.4329 17.1244V27.4473C14.4329 28.0247 14.901 28.4927 15.4783 28.4927H22.2302C22.8745 28.4927 23.3969 29.015 23.3969 29.6594C23.3969 30.3037 22.8745 30.826 22.2302 30.826H15.4783C13.6123 30.826 12.0996 29.3133 12.0996 27.4473V17.1244C12.0996 15.2584 13.6123 13.7457 15.4783 13.7457H20.9476V11.2255C20.9476 10.5812 21.4699 10.0588 22.1143 10.0588Z" fill="#1DC7D2"/>
<path d="M19.7354 20.2649C19.7354 19.6206 19.213 19.0982 18.5687 19.0982C17.9244 19.0982 17.402 19.6206 17.402 20.2649V21.7467C17.402 22.391 17.9244 22.9133 18.5687 22.9133C19.213 22.9133 19.7354 22.391 19.7354 21.7467V20.2649Z" fill="#1DC7D2"/>
<path d="M25.6598 19.0982C26.3042 19.0982 26.8265 19.6206 26.8265 20.2649V21.7467C26.8265 22.391 26.3042 22.9133 25.6598 22.9133C25.0155 22.9133 24.4932 22.391 24.4932 21.7467V20.2649C24.4932 19.6206 25.0155 19.0982 25.6598 19.0982Z" fill="#1DC7D2"/>
<path d="M24.2885 25.7752C24.874 25.5062 25.1305 24.8135 24.8615 24.228C24.5942 23.6462 23.9076 23.3895 23.3244 23.6504C23.3111 23.6757 23.1242 23.7194 23.0895 23.7275C23.0865 23.7283 23.0841 23.7288 23.0841 23.7288C22.8978 23.7788 22.6299 23.8296 22.317 23.8296C21.9742 23.8296 21.7003 23.7772 21.5212 23.729C21.432 23.705 21.3677 23.6825 21.332 23.6688C21.3162 23.6628 21.3062 23.6586 21.3022 23.6569C20.7247 23.3885 20.0368 23.6334 19.7597 24.209C19.4802 24.7896 19.7243 25.4868 20.3048 25.7663L20.3061 25.7669C20.3287 25.7777 20.3516 25.788 20.3745 25.7979C20.4074 25.8121 20.4497 25.8296 20.501 25.8492C20.6036 25.8883 20.743 25.936 20.9151 25.9823C21.2585 26.0747 21.7377 26.1629 22.317 26.1629C22.8765 26.1629 23.3509 26.0731 23.6886 25.9825C23.8585 25.9369 23.997 25.8903 24.0982 25.8528C24.1489 25.8339 24.1905 25.8173 24.2224 25.804L24.2284 25.8015L24.2629 25.7867L24.2776 25.7802L24.2835 25.7775L24.2861 25.7763L24.2885 25.7752Z" fill="#1DC7D2"/>
<path d="M26.7996 25.68C26.181 25.68 25.6796 26.1815 25.6796 26.8V28.4154C25.6796 29.034 26.181 29.5354 26.7996 29.5354C27.4182 29.5354 27.9196 29.034 27.9196 28.4154V27.92H29.8796V33.5953H28.8996C28.281 33.5953 27.7796 34.0968 27.7796 34.7153C27.7796 35.3339 28.281 35.8353 28.8996 35.8353H33.0996C33.7182 35.8353 34.2196 35.3339 34.2196 34.7153C34.2196 34.0968 33.7182 33.5953 33.0996 33.5953H32.1196V27.92H34.0796V28.4154C34.0796 29.034 34.581 29.5354 35.1996 29.5354C35.8182 29.5354 36.3196 29.034 36.3196 28.4154V26.8C36.3196 26.1815 35.8182 25.68 35.1996 25.68H26.7996Z" fill="#1DC7D2"/>
</svg>
